<?xml version="1.0" encoding="UTF-8" standalone="no"?>
<!DOCTYPE svg PUBLIC "-//W3C//DTD SVG 20010904//EN"
              "http://www.w3.org/TR/2001/REC-SVG-20010904/DTD/svg10.dtd">

<svg xmlns="http://www.w3.org/2000/svg"
     width="2.84444in" height="2.84444in"
     viewBox="0 0 256 256">
  <path id="Imported Path"
        fill="none" stroke="black" stroke-width="1"
        d="M 212.19,127.86
           C 211.81,117.67 203.26,109.72 193.05,110.07
             188.52,110.22 184.21,112.08 180.95,115.19
             166.55,105.38 149.64,100.01 132.26,99.63
             132.26,99.63 140.46,60.18 140.46,60.18
             140.46,60.18 167.52,65.87 167.52,65.87
             168.28,72.82 174.50,77.85 181.45,77.09
             188.39,76.34 193.42,70.12 192.67,63.17
             191.91,56.22 185.69,51.19 178.74,51.95
             174.75,52.36 171.17,54.68 169.19,58.14
             169.19,58.14 138.20,51.95 138.20,51.95
             136.09,51.48 133.99,52.80 133.51,54.94
             133.51,54.97 133.51,54.97 133.51,55.00
             133.51,55.00 124.18,98.88 124.18,98.88
             106.58,99.16 89.45,104.57 74.86,114.44
             67.44,107.46 55.75,107.80 48.77,115.25
             41.80,122.67 42.14,134.36 49.59,141.34
             51.04,142.69 52.70,143.86 54.56,144.67
             54.43,146.53 54.43,148.38 54.56,150.24
             54.56,178.56 87.56,201.60 128.26,201.60
             168.97,201.60 201.97,178.59 201.97,150.24
             202.10,148.38 202.10,146.53 201.97,144.67
             208.32,141.50 212.31,134.96 212.19,127.86 Z
           M 85.74,140.52
           C 85.74,133.55 91.43,127.86 98.40,127.86
             105.38,127.86 111.07,133.55 111.07,140.52
             111.07,147.50 105.38,153.19 98.40,153.19
             91.40,153.13 85.74,147.50 85.74,140.52 Z
           M 159.19,175.79
           C 159.19,175.79 159.19,175.29 159.19,175.29
             150.20,182.04 139.20,185.50 127.95,185.03
             116.70,185.50 105.70,182.04 96.70,175.29
             95.51,173.84 95.73,171.67 97.18,170.48
             98.43,169.44 100.23,169.44 101.52,170.48
             109.12,176.04 118.40,178.87 127.82,178.43
             137.25,178.93 146.56,176.23 154.26,170.73
             155.64,169.38 157.90,169.41 159.26,170.79
             160.61,172.18 160.58,174.44 159.19,175.79 Z
           M 157.47,154.10
           C 157.25,154.10 157.06,154.10 156.84,154.10
             156.84,154.10 156.93,153.63 156.93,153.63
             149.95,153.63 144.26,147.94 144.26,140.96
             144.26,133.99 149.95,128.29 156.93,128.29
             163.91,128.29 169.60,133.99 169.60,140.96
             169.88,147.94 164.44,153.82 157.47,154.10 Z
           M 254.31,127.86
           C 254.31,197.69 197.69,254.31 127.86,254.31
             58.02,254.31 1.41,197.69 1.41,127.86
             1.41,58.02 58.02,1.41 127.86,1.41
             197.69,1.41 254.31,58.02 254.31,127.86 Z" />
</svg>
