<?xml version="1.0" encoding="UTF-8" standalone="no"?>
<!DOCTYPE svg PUBLIC "-//W3C//DTD SVG 20010904//EN"
              "http://www.w3.org/TR/2001/REC-SVG-20010904/DTD/svg10.dtd">

<svg xmlns="http://www.w3.org/2000/svg"
     width="1200px" height="1200px"
     viewBox="0 0 4000 4000">
  <path id="Imported Path"
        fill="#888" stroke="#888" stroke-width="2"
        d="M 1991.88,2018.12
           C 1992.81,2019.06 1992.19,2021.56 1990.31,2024.06
             1987.81,2026.87 1987.81,2029.38 1990.31,2032.19
             1992.81,2035.31 1992.81,2043.44 1990.31,2062.81
             1985.31,2100.62 1985.94,2186.25 1991.88,2225.62
             2008.44,2339.06 2056.56,2447.19 2134.38,2545.31
             2160.62,2578.44 2222.19,2641.25 2261.25,2675.00
             2393.75,2789.37 2574.38,2892.81 2805.31,2986.25
             3099.06,3105.31 3505.00,3215.00 3942.81,3294.06
             3942.81,3294.06 4000.00,3304.38 4000.00,3304.38
             4000.00,3304.38 4000.00,3391.25 4000.00,3391.25
             4000.00,3472.81 3999.69,3478.44 3994.38,3476.87
             3991.56,3475.94 3961.56,3468.12 3928.12,3459.38
             3212.19,3272.19 2677.19,3049.38 2356.25,2805.00
             2066.25,2584.06 1940.00,2335.31 1984.69,2072.19
             1989.37,2045.00 1989.69,2035.62 1987.19,2033.12
             1984.38,2030.62 1984.06,2031.25 1985.31,2035.00
             1986.56,2038.12 1984.69,2051.56 1981.25,2064.69
             1959.69,2151.25 1959.69,2260.94 1981.25,2346.88
             2028.12,2533.12 2165.94,2715.62 2394.06,2892.50
             2724.38,3149.38 3236.88,3393.75 3954.69,3636.88
             3954.69,3636.88 3998.44,3651.56 3998.44,3651.56
             3998.44,3651.56 3999.38,3738.44 3999.38,3738.44
             3999.69,3785.94 3999.69,3825.00 3998.75,3825.00
             3998.12,3825.00 3964.06,3810.94 3923.12,3794.06
             3299.06,3535.63 2814.69,3277.19 2487.50,3028.44
             2197.19,2807.50 2023.44,2588.75 1969.06,2376.25
             1956.25,2326.56 1952.19,2291.25 1952.19,2232.81
             1952.19,2170.62 1958.12,2128.75 1975.00,2070.31
             1980.00,2053.44 1983.75,2038.75 1983.12,2038.12
             1980.94,2036.25 1961.56,2093.12 1953.12,2126.56
             1931.56,2211.56 1932.50,2312.50 1955.94,2403.12
             2055.31,2784.38 2524.06,3206.56 3365.62,3673.75
             3493.44,3744.69 3636.25,3819.06 3813.75,3907.81
             3813.75,3907.81 3998.12,4000.00 3998.12,4000.00
             3998.12,4000.00 3911.88,4000.00 3911.88,4000.00
             3911.88,4000.00 3825.62,4000.00 3825.62,4000.00
             3825.62,4000.00 3748.44,3959.06 3748.44,3959.06
             2557.50,3330.94 1950.62,2788.75 1919.06,2326.25
             1912.81,2233.75 1932.50,2131.25 1971.88,2053.12
             1980.62,2035.62 1983.12,2028.12 1980.62,2024.69
             1978.12,2021.25 1977.81,2021.56 1979.38,2025.94
             1980.62,2029.69 1980.00,2030.94 1977.50,2029.38
             1975.62,2028.12 1975.00,2028.44 1975.94,2030.31
             1977.19,2032.19 1970.94,2045.94 1962.50,2061.25
             1934.38,2110.94 1911.25,2178.75 1901.25,2239.06
             1894.69,2280.00 1894.69,2359.38 1901.25,2402.81
             1923.44,2545.94 1995.31,2693.12 2120.00,2851.56
             2215.31,2972.81 2361.25,3117.81 2520.00,3249.38
             2783.44,3467.81 3144.06,3709.69 3564.69,3950.00
             3564.69,3950.00 3649.69,3998.44 3649.69,3998.44
             3649.69,3998.44 3564.06,3999.38 3564.06,3999.38
             3564.06,3999.38 3478.12,4000.00 3478.12,4000.00
             3478.12,4000.00 3415.00,3960.63 3415.00,3960.63
             2714.38,3523.13 2252.19,3134.69 2029.69,2796.88
             1943.12,2665.31 1893.75,2546.88 1876.25,2428.12
             1869.38,2379.38 1871.56,2286.88 1880.94,2244.38
             1895.00,2181.25 1920.62,2118.44 1955.00,2063.44
             1964.37,2048.75 1971.56,2035.94 1970.62,2035.31
             1968.44,2033.12 1926.87,2093.44 1910.00,2123.44
             1827.81,2269.06 1822.81,2443.12 1895.62,2629.06
             1923.44,2699.38 1981.25,2805.00 2033.44,2880.00
             2256.25,3200.62 2661.56,3560.31 3266.88,3974.38
             3266.88,3974.38 3304.38,4000.00 3304.38,4000.00
             3304.38,4000.00 3217.50,4000.00 3217.50,4000.00
             3217.50,4000.00 3130.62,4000.00 3130.62,4000.00
             3130.62,4000.00 3080.31,3961.88 3080.31,3961.88
             2620.62,3614.69 2267.81,3282.50 2061.88,3003.12
             1932.19,2826.87 1850.62,2658.75 1824.38,2512.50
             1815.31,2461.88 1813.12,2375.62 1820.00,2329.69
             1835.62,2223.44 1884.06,2124.06 1961.25,2040.00
             1980.62,2018.75 1987.81,2013.75 1991.88,2018.12 Z
           M 1981.25,2020.62
           C 1981.25,2023.12 1987.19,2024.69 1988.75,2022.50
             1989.69,2020.94 1988.44,2019.69 1985.94,2019.69
             1983.44,2019.69 1981.25,2020.31 1981.25,2020.62 Z
           M 2003.12,2019.06
           C 2001.56,2021.88 2000.31,2028.12 2000.31,2033.12
             2000.31,2038.12 2000.31,2056.25 2000.31,2073.44
             1999.69,2206.25 2049.69,2345.94 2137.81,2456.56
             2165.62,2491.25 2230.94,2554.38 2271.25,2585.31
             2393.75,2679.06 2574.69,2761.88 2779.69,2818.12
             3076.88,2900.00 3441.88,2944.06 3907.19,2955.00
             3907.19,2955.00 4000.00,2957.19 4000.00,2957.19
             4000.00,2957.19 4000.00,3044.38 4000.00,3044.38
             4000.00,3044.38 4000.00,3131.25 4000.00,3131.25
             4000.00,3131.25 3993.12,3130.00 3993.12,3130.00
             3989.06,3129.06 3969.06,3126.87 3948.44,3125.00
             3892.50,3119.69 3757.81,3104.06 3678.12,3093.44
             3125.31,3019.38 2713.75,2903.12 2430.62,2740.94
             2196.25,2606.88 2052.19,2436.25 2010.00,2243.75
             1997.50,2187.81 1995.62,2167.50 1995.00,2090.00
             1994.69,2017.50 1995.00,2013.12 2000.31,2013.44
             2004.38,2013.75 2005.00,2015.00 2003.12,2019.06 Z
           M 1960.62,2008.44
           C 1964.69,2009.38 1955.94,2014.06 1934.06,2022.19
             1866.56,2047.50 1796.56,2087.19 1746.88,2128.12
             1699.38,2167.19 1650.94,2225.00 1619.38,2280.00
             1537.50,2423.75 1510.31,2621.25 1539.37,2862.50
             1574.06,3149.69 1695.62,3527.81 1885.94,3940.62
             1897.50,3965.62 1908.12,3989.06 1909.69,3992.81
             1909.69,3992.81 1912.50,4000.00 1912.50,4000.00
             1912.50,4000.00 1825.62,4000.00 1825.62,4000.00
             1825.62,4000.00 1739.06,4000.00 1739.06,4000.00
             1739.06,4000.00 1731.88,3980.31 1731.88,3980.31
             1711.88,3925.31 1638.44,3702.50 1620.62,3643.75
             1557.50,3432.19 1514.69,3247.19 1490.62,3078.75
             1458.75,2854.38 1458.75,2678.44 1490.62,2521.88
             1520.00,2379.38 1574.38,2268.75 1657.19,2182.50
             1732.81,2103.75 1810.31,2056.88 1925.00,2020.31
             1963.75,2007.81 1959.06,2006.25 1916.25,2017.19
             1836.88,2037.19 1754.69,2073.75 1697.19,2115.00
             1538.44,2228.12 1441.25,2421.25 1408.12,2689.06
             1391.56,2820.62 1391.56,2995.94 1408.12,3171.88
             1427.81,3383.12 1472.19,3627.81 1542.19,3908.44
             1542.19,3908.44 1564.69,4000.00 1564.69,4000.00
             1564.69,4000.00 1478.12,4000.00 1478.12,4000.00
             1478.12,4000.00 1391.56,4000.00 1391.56,4000.00
             1391.56,4000.00 1383.12,3949.06 1383.12,3949.06
             1331.56,3628.12 1309.06,3378.12 1309.06,3128.44
             1309.38,2859.69 1335.00,2670.00 1395.31,2493.75
             1485.94,2229.38 1650.31,2069.38 1884.38,2017.50
             1922.81,2009.06 1950.94,2005.62 1960.62,2008.44 Z
           M 1951.87,2000.31
           C 1956.87,2001.25 1964.37,2001.56 1968.75,2000.94
             1973.12,2000.31 1978.75,2001.25 1981.25,2003.12
             1985.31,2005.94 1984.69,2007.50 1977.19,2014.06
             1972.50,2018.44 1969.37,2021.88 1970.62,2021.88
             1971.56,2021.88 1958.75,2036.25 1941.88,2054.06
             1834.06,2165.94 1784.38,2284.06 1784.38,2429.38
             1784.38,2483.75 1787.50,2515.00 1797.19,2564.06
             1823.44,2695.31 1895.94,2853.12 2002.81,3012.50
             2113.75,3177.81 2238.12,3325.31 2430.94,3519.69
             2578.44,3668.75 2726.56,3805.00 2903.12,3954.69
             2903.12,3954.69 2954.38,3998.44 2954.38,3998.44
             2954.38,3998.44 2869.06,3999.38 2869.06,3999.38
             2869.06,3999.38 2783.75,4000.00 2783.75,4000.00
             2783.75,4000.00 2750.62,3969.69 2750.62,3969.69
             2653.44,3880.00 2439.06,3660.00 2334.06,3542.19
             1981.56,3146.25 1790.62,2816.56 1754.38,2542.19
             1747.50,2490.00 1750.00,2392.50 1759.38,2348.44
             1769.38,2302.19 1782.19,2265.62 1804.69,2220.31
             1832.81,2163.75 1859.38,2128.12 1911.56,2075.62
             1936.25,2051.25 1955.31,2031.25 1954.38,2031.25
             1949.38,2031.25 1895.00,2076.87 1868.75,2103.12
             1787.81,2184.06 1739.06,2279.38 1718.12,2396.88
             1711.88,2431.88 1713.12,2551.56 1720.00,2595.31
             1748.12,2774.38 1828.75,2968.75 1968.44,3193.75
             2102.81,3410.00 2307.19,3671.25 2545.94,3931.25
             2573.12,3960.94 2597.81,3988.44 2600.94,3992.50
             2600.94,3992.50 2606.88,4000.00 2606.88,4000.00
             2606.88,4000.00 2520.94,4000.00 2520.94,4000.00
             2520.94,4000.00 2435.00,4000.00 2435.00,4000.00
             2435.00,4000.00 2394.38,3949.06 2394.38,3949.06
             2019.06,3477.50 1788.12,3080.31 1706.56,2765.31
             1624.69,2449.69 1690.94,2214.06 1905.62,2058.75
             1920.00,2048.44 1939.69,2035.00 1949.38,2029.06
             1979.69,2010.62 1954.38,2021.25 1917.50,2042.81
             1605.62,2224.06 1546.56,2570.62 1741.56,3071.88
             1837.19,3317.81 1988.44,3593.75 2205.94,3918.75
             2205.94,3918.75 2259.38,3998.44 2259.38,3998.44
             2259.38,3998.44 2175.94,3999.38 2175.94,3999.38
             2130.00,3999.69 2090.62,3999.38 2088.75,3998.75
             2085.31,3997.50 2042.19,3922.19 1985.94,3818.75
             1945.94,3745.31 1846.56,3545.94 1815.62,3476.56
             1689.37,3195.94 1618.75,2969.38 1590.00,2754.69
             1581.88,2694.38 1580.31,2555.62 1586.88,2506.56
             1613.12,2313.12 1693.12,2177.81 1839.06,2080.62
             1880.31,2053.12 1955.62,2014.69 1968.12,2014.69
             1975.62,2014.69 1975.94,2014.69 1970.31,2010.62
             1960.62,2003.44 1944.69,2002.19 1910.00,2005.94
             1798.44,2018.44 1691.88,2059.69 1603.12,2125.31
             1567.81,2151.25 1498.12,2221.88 1468.44,2261.25
             1249.06,2553.44 1162.50,3082.50 1208.12,3854.69
             1210.62,3899.38 1213.75,3950.31 1215.00,3968.12
             1215.00,3968.12 1217.19,4000.00 1217.19,4000.00
             1217.19,4000.00 1130.00,4000.00 1130.00,4000.00
             1130.00,4000.00 1042.81,4000.00 1042.81,4000.00
             1042.81,4000.00 1045.00,3906.88 1045.00,3906.88
             1055.94,3441.56 1100.00,3076.87 1181.88,2779.69
             1238.12,2574.69 1320.94,2393.75 1414.69,2271.25
             1445.62,2230.94 1508.75,2165.62 1543.44,2137.81
             1629.38,2069.69 1725.31,2026.56 1833.44,2007.81
             1866.56,2002.19 1938.44,1997.50 1951.87,2000.31 Z
           M 1972.81,2005.31
           C 1975.62,2005.94 1977.19,2008.12 1976.25,2010.00
             1975.00,2012.19 1975.62,2012.50 1977.81,2011.25
             1982.50,2008.12 1979.06,2003.12 1972.50,2003.44
             1967.81,2003.75 1967.81,2004.06 1972.81,2005.31 Z
           M 1957.50,2030.62
           C 1958.75,2031.56 1961.87,2030.00 1965.00,2026.87
             1970.00,2021.25 1970.00,2021.25 1963.12,2025.00
             1959.06,2026.87 1956.56,2029.38 1957.50,2030.62 Z
           M 1682.19,1847.19
           C 1785.00,1859.06 1887.19,1904.38 1972.50,1975.94
             1972.50,1975.94 1981.25,1983.12 1981.25,1983.12
             1981.25,1983.12 1967.81,1982.50 1967.81,1982.50
             1960.62,1982.50 1941.88,1978.75 1926.56,1974.06
             1870.94,1957.81 1828.44,1952.19 1767.19,1952.19
             1708.75,1952.19 1673.44,1956.25 1623.75,1969.06
             1333.75,2043.12 1037.19,2335.00 730.62,2848.44
             556.25,3140.31 365.94,3531.88 193.75,3952.50
             193.75,3952.50 174.38,4000.00 174.38,4000.00
             174.38,4000.00 87.19,4000.00 87.19,4000.00
             87.19,4000.00 0.31,4000.00 0.31,4000.00
             0.31,4000.00 30.00,3938.12 30.00,3938.12
             105.94,3780.31 241.25,3519.06 328.12,3362.50
             705.31,2681.88 1060.31,2239.38 1381.88,2048.12
             1458.12,2002.81 1527.81,1973.44 1603.12,1954.69
             1658.12,1940.94 1676.87,1939.06 1746.88,1939.37
             1823.12,1939.37 1850.62,1943.75 1915.62,1965.62
             1935.31,1972.19 1954.38,1978.44 1957.81,1979.69
             1979.38,1986.56 1916.88,1957.81 1890.31,1948.44
             1569.06,1836.25 1210.31,2031.25 799.69,2540.62
             565.62,2830.94 294.38,3263.75 30.94,3767.19
             30.94,3767.19 1.56,3823.13 1.56,3823.13
             1.56,3823.13 0.62,3737.81 0.62,3737.81
             0.62,3737.81 0.00,3652.19 0.00,3652.19
             0.00,3652.19 51.87,3561.25 51.87,3561.25
             375.62,2996.25 680.00,2569.69 957.81,2292.19
             1051.25,2198.75 1123.12,2136.25 1205.62,2077.19
             1469.69,1887.81 1709.69,1846.25 1921.56,1953.75
             1941.25,1963.75 1957.81,1971.25 1958.44,1970.62
             1960.62,1968.44 1917.81,1942.81 1884.38,1926.25
             1847.19,1907.50 1798.44,1890.31 1755.62,1880.94
             1718.44,1872.81 1624.06,1869.37 1582.81,1874.69
             1324.38,1908.44 1040.62,2105.31 715.31,2476.56
             506.25,2715.00 265.62,3050.00 31.25,3428.12
             16.87,3451.25 4.06,3471.56 2.50,3473.13
             1.25,3475.00 0.00,3437.50 0.00,3390.00
             0.00,3390.00 0.00,3304.06 0.00,3304.06
             0.00,3304.06 60.31,3216.88 60.31,3216.88
             461.25,2637.19 807.19,2250.94 1120.00,2033.44
             1195.00,1981.25 1297.19,1925.00 1368.75,1896.56
             1476.56,1854.06 1588.75,1836.25 1682.19,1847.19 Z
           M 1959.38,1973.44
           C 1959.38,1974.06 1962.50,1976.56 1966.25,1978.44
             1972.81,1981.87 1973.12,1981.87 1969.06,1977.19
             1965.00,1972.19 1959.38,1970.00 1959.38,1973.44 Z
           M 1570.31,1714.37
           C 1703.12,1730.00 1807.19,1779.06 1896.88,1868.75
             1923.12,1895.00 1968.75,1949.37 1968.75,1954.38
             1968.75,1955.31 1948.75,1936.25 1924.06,1911.56
             1871.88,1859.38 1836.25,1832.81 1779.69,1804.69
             1734.38,1782.19 1697.81,1769.37 1651.56,1759.38
             1607.50,1750.00 1510.00,1747.50 1457.81,1754.38
             1198.12,1788.44 891.25,1960.31 521.88,2277.81
             384.69,2395.94 200.62,2572.19 51.87,2727.81
             51.87,2727.81 0.00,2782.50 0.00,2782.50
             0.00,2782.50 0.00,2695.00 0.00,2695.00
             0.00,2695.00 0.31,2607.81 0.31,2607.81
             0.31,2607.81 27.50,2583.12 27.50,2583.12
             214.37,2413.75 294.06,2345.00 421.88,2243.12
             730.00,1997.81 1001.56,1836.56 1232.81,1761.56
             1308.75,1736.87 1377.81,1721.88 1443.12,1715.62
             1474.38,1712.81 1549.06,1712.19 1570.31,1714.37 Z
           M 1481.25,1630.31
           C 1543.75,1636.25 1561.88,1638.44 1587.50,1643.75
             1745.31,1676.87 1871.56,1770.31 1957.19,1917.50
             1976.87,1951.56 1982.19,1962.81 1982.50,1971.56
             1982.81,1977.81 1993.75,1978.75 1993.75,1972.50
             1993.75,1970.00 1994.69,1968.75 1995.94,1969.69
             1999.37,1973.12 1990.31,1986.87 1983.12,1988.75
             1978.75,1990.00 1977.81,1991.56 1980.31,1992.81
             1982.19,1994.37 1951.25,1995.31 1911.56,1995.31
             1794.06,1995.31 1722.81,2010.31 1629.69,2054.38
             1557.81,2088.75 1501.87,2129.06 1435.94,2195.31
             1369.38,2261.88 1317.19,2330.31 1265.31,2419.69
             1099.06,2705.94 981.56,3117.81 906.56,3678.12
             895.94,3757.81 880.31,3892.50 875.00,3948.44
             873.12,3969.06 870.94,3989.06 870.00,3993.12
             870.00,3993.12 868.75,4000.00 868.75,4000.00
             868.75,4000.00 782.81,4000.00 782.81,4000.00
             721.88,4000.00 696.88,3999.06 696.88,3996.56
             696.88,3990.00 721.88,3857.50 739.06,3771.88
             849.06,3228.75 989.37,2801.25 1153.12,2510.94
             1229.38,2376.25 1301.87,2278.75 1390.94,2191.88
             1454.69,2130.00 1513.12,2087.19 1581.25,2053.12
             1689.06,1999.06 1792.81,1979.38 1923.44,1988.12
             1923.44,1988.12 1954.69,1990.31 1954.69,1990.31
             1954.69,1990.31 1934.38,1985.94 1934.38,1985.94
             1871.88,1972.50 1783.12,1973.12 1707.81,1987.50
             1431.56,2040.94 1171.56,2307.81 948.12,2766.88
             800.00,3071.88 662.81,3463.12 540.62,3928.12
             531.88,3961.56 524.06,3991.56 523.12,3994.38
             521.56,3999.69 514.69,4000.00 434.69,4000.00
             434.69,4000.00 347.81,4000.00 347.81,4000.00
             347.81,4000.00 370.94,3932.19 370.94,3932.19
             725.31,2884.06 1107.81,2244.06 1500.62,2040.62
             1605.31,1986.56 1688.12,1965.31 1794.06,1965.31
             1848.12,1965.62 1891.56,1970.31 1935.31,1981.25
             1948.44,1984.69 1961.87,1986.25 1964.69,1985.31
             1968.12,1984.06 1969.06,1984.38 1967.50,1986.87
             1966.25,1989.06 1962.19,1990.94 1958.44,1990.94
             1952.81,1991.25 1952.81,1991.56 1957.19,1992.81
             1960.31,1993.75 1964.69,1992.50 1967.19,1990.62
             1969.69,1988.75 1973.44,1988.12 1975.31,1989.37
             1977.81,1990.62 1978.12,1990.31 1976.87,1987.81
             1975.62,1985.94 1975.62,1984.69 1977.19,1985.00
             1992.19,1990.00 1953.44,1952.50 1911.56,1921.56
             1782.50,1825.62 1635.00,1794.69 1468.44,1828.12
             1276.25,1867.19 1042.19,2005.31 800.31,2222.50
             562.81,2436.25 305.31,2726.25 28.12,3093.12
             28.12,3093.12 1.56,3128.44 1.56,3128.44
             1.56,3128.44 0.62,3042.19 0.62,3042.19
             0.62,3042.19 0.00,2956.25 0.00,2956.25
             0.00,2956.25 45.94,2902.19 45.94,2902.19
             306.56,2597.19 541.25,2357.19 751.56,2180.94
             975.62,1993.12 1191.88,1864.69 1371.88,1812.81
             1443.75,1792.19 1498.44,1784.38 1570.62,1784.38
             1715.62,1784.38 1834.06,1834.06 1945.62,1941.56
             1966.88,1961.87 1978.44,1970.94 1980.00,1968.44
             1981.25,1965.94 1980.94,1965.62 1978.75,1966.88
             1976.56,1968.12 1975.62,1967.50 1975.94,1965.00
             1976.56,1962.81 1976.56,1961.87 1975.94,1963.44
             1974.06,1966.25 1968.75,1963.12 1968.75,1959.06
             1968.75,1957.19 1970.00,1956.87 1971.88,1957.81
             1979.38,1962.50 1973.44,1951.56 1950.62,1919.37
             1881.56,1820.62 1805.94,1756.87 1710.00,1716.88
             1598.75,1670.00 1479.38,1660.62 1328.12,1686.25
             1021.88,1738.12 622.19,1952.81 143.75,2321.56
             93.75,2360.00 19.06,2419.06 5.31,2430.62
             0.31,2435.00 0.00,2430.94 0.00,2347.81
             0.00,2347.81 0.00,2260.31 0.00,2260.31
             0.00,2260.31 95.94,2196.25 95.94,2196.25
             592.19,1865.94 984.38,1684.06 1298.44,1639.37
             1359.69,1630.62 1441.88,1626.56 1481.25,1630.31 Z
           M 4000.00,1305.31
           C 4000.00,1305.31 4000.00,1393.12 4000.00,1393.12
             4000.00,1393.12 3992.50,1399.06 3992.50,1399.06
             3988.44,1402.19 3960.94,1426.87 3931.56,1453.75
             3585.31,1771.56 3265.94,2006.56 2996.88,2141.88
             2845.00,2218.44 2724.69,2259.69 2595.31,2280.00
             2551.56,2286.88 2431.88,2288.12 2396.88,2281.88
             2254.06,2256.56 2135.94,2184.69 2048.44,2069.38
             2036.56,2053.75 2026.25,2041.56 2025.31,2042.19
             2023.75,2044.06 2047.81,2080.94 2068.44,2107.81
             2111.56,2163.44 2151.88,2201.88 2205.62,2237.81
             2329.38,2320.62 2484.38,2346.25 2670.31,2314.06
             2958.75,2264.38 3321.88,2077.19 3757.81,1753.12
             3826.25,1702.19 3965.31,1594.37 3994.38,1569.37
             3999.69,1565.00 4000.00,1569.06 4000.00,1652.19
             4000.00,1652.19 4000.00,1739.69 4000.00,1739.69
             4000.00,1739.69 3908.44,1800.62 3908.44,1800.62
             3196.88,2275.00 2683.44,2451.56 2346.25,2337.81
             2206.56,2290.94 2094.06,2189.06 2021.56,2044.06
             2018.44,2037.81 2015.94,2034.69 2015.62,2037.19
             2015.62,2046.25 2056.88,2125.00 2080.62,2160.94
             2139.38,2249.06 2210.00,2311.25 2300.62,2354.69
             2361.25,2383.75 2426.56,2402.19 2506.56,2413.12
             2555.62,2419.69 2694.38,2418.12 2754.69,2410.00
             2973.12,2380.94 3200.00,2309.38 3487.50,2179.38
             3607.50,2125.00 3815.94,2017.81 3958.75,1936.56
             3958.75,1936.56 4000.00,1912.81 4000.00,1912.81
             4000.00,1912.81 3999.38,2000.31 3999.38,2000.31
             3999.38,2000.31 3998.44,2087.81 3998.44,2087.81
             3998.44,2087.81 3946.88,2111.25 3946.88,2111.25
             3554.38,2290.94 3216.25,2404.38 2939.06,2449.69
             2758.75,2479.06 2599.69,2479.06 2464.06,2450.00
             2425.62,2441.56 2359.06,2419.69 2324.38,2403.44
             2186.56,2340.00 2085.31,2227.81 2023.75,2070.31
             2010.31,2035.94 2009.38,2040.62 2021.56,2079.69
             2057.19,2190.00 2104.69,2268.12 2182.50,2342.81
             2325.62,2480.31 2553.12,2545.31 2845.00,2531.56
             3021.88,2523.12 3180.62,2498.75 3396.56,2446.56
             3553.75,2408.75 3778.12,2340.62 3948.12,2279.38
             3973.75,2270.00 3995.62,2262.50 3997.19,2262.50
             3998.75,2262.50 4000.00,2300.94 4000.00,2348.12
             4000.00,2348.12 4000.00,2433.75 4000.00,2433.75
             4000.00,2433.75 3989.69,2437.19 3989.69,2437.19
             3969.69,2443.75 3815.31,2481.25 3732.81,2499.38
             3485.00,2554.69 3277.50,2586.25 3068.75,2600.31
             3001.56,2604.69 2829.38,2604.69 2771.88,2600.31
             2596.56,2586.25 2464.38,2554.06 2348.12,2496.56
             2276.56,2461.25 2219.06,2419.38 2166.88,2364.69
             2094.38,2288.75 2048.44,2202.50 2016.88,2082.81
             2007.81,2049.06 2006.25,2045.31 2007.81,2060.94
             2015.31,2140.31 2055.62,2250.62 2104.06,2324.69
             2235.31,2524.38 2485.00,2642.19 2857.81,2679.69
             3015.94,2695.31 3233.12,2695.31 3437.50,2679.38
             3593.44,2667.19 3761.25,2646.88 3936.88,2618.44
             3968.44,2613.44 3995.62,2609.38 3997.19,2609.38
             3999.06,2609.38 3999.69,2643.12 3999.38,2695.94
             3999.38,2695.94 3998.44,2782.81 3998.44,2782.81
             3998.44,2782.81 3967.19,2785.00 3967.19,2785.00
             3656.56,2806.25 3386.25,2809.38 3164.06,2793.75
             2750.94,2764.37 2446.88,2675.31 2254.69,2526.56
             2217.50,2498.12 2150.00,2430.00 2125.31,2396.88
             2059.06,2307.19 2017.50,2199.38 2005.94,2087.19
             2002.50,2055.00 2002.50,2048.75 2006.87,2037.81
             2009.69,2030.62 2010.62,2024.37 2009.06,2023.12
             2007.50,2022.19 2006.25,2024.06 2006.25,2026.87
             2006.25,2030.00 2005.31,2031.56 2004.38,2030.31
             2003.12,2029.38 2003.44,2025.94 2004.69,2022.81
             2006.56,2017.81 2007.19,2017.81 2013.12,2025.00
             2016.56,2029.38 2020.62,2032.81 2021.88,2032.81
             2023.12,2032.81 2034.69,2045.00 2047.81,2059.69
             2130.94,2155.00 2232.19,2215.94 2348.44,2240.62
             2392.50,2250.00 2490.00,2252.50 2542.19,2245.62
             2801.88,2211.56 3108.75,2039.69 3478.12,1722.19
             3615.31,1604.06 3799.38,1427.81 3948.12,1272.19
             3948.12,1272.19 4000.00,1217.50 4000.00,1217.50
             4000.00,1217.50 4000.00,1305.31 4000.00,1305.31 Z
           M 2010.00,2040.94
           C 2010.94,2043.44 2012.19,2041.88 2013.44,2037.81
             2014.69,2032.50 2014.37,2031.25 2011.87,2033.75
             2010.31,2035.31 2009.38,2038.75 2010.00,2040.94 Z
           M 732.81,1200.31
           C 1200.00,1222.50 1522.50,1308.44 1735.94,1466.88
             1779.69,1499.37 1846.25,1564.69 1874.69,1603.12
             1940.31,1691.56 1981.56,1798.44 1994.06,1910.00
             1997.81,1944.69 1996.56,1960.62 1989.37,1970.31
             1985.31,1975.94 1985.00,1975.62 1985.00,1968.12
             1985.00,1955.62 1946.88,1880.31 1919.38,1839.06
             1860.62,1750.94 1790.00,1688.75 1699.38,1645.31
             1638.75,1616.25 1573.44,1597.81 1493.44,1586.87
             1444.38,1580.31 1305.62,1581.87 1245.31,1590.00
             1027.50,1619.06 799.38,1690.62 512.50,1820.62
             392.50,1875.00 190.00,1979.06 44.37,2061.88
             44.37,2061.88 0.00,2087.19 0.00,2087.19
             0.00,2087.19 0.62,1999.69 0.62,1999.69
             0.62,1999.69 1.56,1912.19 1.56,1912.19
             1.56,1912.19 67.19,1882.50 67.19,1882.50
             777.81,1559.06 1297.81,1456.87 1625.00,1576.25
             1685.94,1598.44 1729.06,1621.25 1778.12,1658.12
             1863.12,1721.88 1926.87,1807.19 1971.56,1918.75
             1989.37,1962.50 1992.19,1963.44 1978.44,1920.31
             1916.88,1728.44 1790.94,1595.31 1605.94,1526.87
             1428.44,1461.25 1207.50,1449.69 921.25,1490.62
             678.12,1525.62 369.06,1607.19 52.19,1720.62
             25.94,1730.00 3.75,1737.50 2.50,1737.50
             0.94,1737.50 0.00,1699.06 0.00,1651.87
             0.00,1651.87 0.00,1566.25 0.00,1566.25
             0.00,1566.25 10.00,1562.81 10.00,1562.81
             28.12,1556.87 180.62,1519.69 254.69,1503.12
             800.94,1380.31 1226.87,1362.50 1515.62,1450.00
             1640.62,1487.81 1737.50,1541.88 1815.31,1617.19
             1898.44,1697.50 1949.06,1787.50 1983.12,1917.19
             1992.19,1950.94 1993.75,1954.69 1992.19,1939.06
             1986.87,1884.69 1962.81,1803.44 1934.38,1744.06
             1825.94,1519.69 1597.50,1385.00 1232.81,1331.25
             1125.00,1315.62 1022.50,1309.06 871.56,1309.06
             625.00,1308.75 375.62,1330.94 72.50,1380.00
             35.94,1385.94 4.37,1390.62 2.81,1390.62
             0.94,1390.62 0.31,1357.19 0.62,1303.75
             0.62,1303.75 1.56,1217.19 1.56,1217.19
             1.56,1217.19 32.81,1215.00 32.81,1215.00
             106.25,1210.00 232.19,1203.12 303.75,1200.00
             390.94,1196.56 656.88,1196.56 732.81,1200.31 Z
           M 1988.44,1963.12
           C 1989.37,1965.62 1990.31,1964.69 1990.31,1961.25
             1990.62,1957.81 1989.69,1955.94 1988.75,1957.19
             1987.81,1958.12 1987.50,1960.94 1988.44,1963.12 Z
           M 45.31,873.75
           C 520.00,923.75 875.62,991.25 1167.19,1086.25
             1575.31,1219.37 1831.25,1396.56 1942.19,1623.12
             1972.19,1685.00 1988.44,1736.25 2000.31,1809.38
             2002.50,1822.50 2004.69,1866.56 2005.00,1910.00
             2005.31,1982.50 2005.00,1986.87 1999.69,1986.56
             1995.62,1986.25 1995.00,1985.00 1996.88,1980.94
             1998.44,1978.12 1999.69,1971.88 1999.69,1966.88
             1999.69,1961.87 1999.69,1943.12 1999.69,1925.00
             2000.00,1815.62 1962.81,1692.19 1900.94,1596.88
             1848.75,1516.56 1765.31,1435.31 1673.44,1375.62
             1356.56,1169.06 849.06,1063.12 88.12,1045.00
             88.12,1045.00 0.00,1042.81 0.00,1042.81
             0.00,1042.81 0.00,955.94 0.00,955.94
             0.00,907.81 0.94,869.06 2.19,869.06
             3.75,869.37 22.81,871.56 45.31,873.75 Z
           M 62.50,537.81
           C 262.81,591.25 419.69,637.19 578.12,689.06
             1252.19,909.69 1686.25,1158.44 1892.50,1442.19
             1987.81,1573.12 2034.06,1725.31 2022.19,1868.44
             2020.00,1893.75 2016.56,1923.12 2014.06,1934.38
             2014.06,1934.38 2009.69,1954.69 2009.69,1954.69
             2009.69,1954.69 2011.87,1923.44 2011.87,1923.44
             2020.62,1793.12 2000.62,1688.75 1946.88,1581.25
             1911.88,1511.87 1869.69,1454.06 1805.00,1388.12
             1662.19,1242.50 1459.06,1119.06 1176.56,1006.25
             889.06,891.56 481.88,782.50 56.87,705.94
             56.87,705.94 0.00,695.62 0.00,695.62
             0.00,695.62 0.00,608.75 0.00,608.75
             0.00,560.94 0.94,521.88 2.19,522.19
             3.75,522.19 30.62,529.37 62.50,537.81 Z
           M 4000.00,262.19
           C 4000.00,262.19 4000.00,347.81 4000.00,347.81
             4000.00,347.81 3947.81,438.75 3947.81,438.75
             3554.06,1126.25 3191.56,1605.31 2866.25,1868.12
             2575.62,2103.12 2309.38,2163.44 2078.44,2046.25
             2058.75,2036.25 2042.19,2028.75 2041.56,2029.38
             2039.37,2031.56 2082.19,2057.19 2115.62,2073.75
             2186.56,2109.38 2250.00,2125.00 2333.12,2127.19
             2394.38,2129.06 2424.06,2126.25 2480.00,2113.75
             2889.38,2022.81 3387.81,1506.56 3970.62,569.06
             3970.62,569.06 3998.44,524.06 3998.44,524.06
             3998.44,524.06 3999.38,609.69 3999.38,609.69
             3999.38,609.69 4000.00,695.31 4000.00,695.31
             4000.00,695.31 3971.25,737.50 3971.25,737.50
             3890.62,856.25 3796.88,986.56 3709.06,1103.12
             3270.00,1686.25 2886.56,2029.06 2565.00,2126.25
             2362.19,2187.50 2181.88,2153.12 2026.87,2023.75
             2018.12,2016.56 2018.12,2016.56 2025.62,2017.19
             2029.69,2017.81 2043.12,2023.12 2055.00,2029.06
             2130.62,2067.19 2231.56,2086.56 2325.00,2080.94
             2658.12,2060.94 3041.25,1730.00 3461.56,1100.00
             3622.81,858.12 3810.00,538.13 3965.62,239.06
             3980.00,211.56 3993.44,186.25 3995.94,182.81
             3999.38,177.81 4000.00,190.00 4000.00,262.19 Z
           M 2031.25,2023.44
           C 2033.44,2025.94 2036.87,2028.12 2038.75,2028.12
             2040.62,2028.12 2039.37,2025.94 2036.25,2023.44
             2028.44,2017.50 2026.25,2017.50 2031.25,2023.44 Z
           M 901.56,24.06
           C 1000.94,100.31 1034.06,125.62 1103.12,180.94
             1609.38,583.75 1937.19,935.94 2089.06,1240.62
             2155.62,1374.06 2184.38,1481.25 2184.38,1596.88
             2184.38,1710.94 2152.81,1807.19 2084.38,1903.44
             2063.12,1933.75 2020.00,1982.81 2014.37,1983.12
             2007.81,1983.44 2005.94,1980.62 2009.69,1976.25
             2012.50,1972.81 2012.50,1970.94 2009.38,1967.19
             2007.50,1964.69 2006.25,1960.31 2007.19,1957.19
             2008.44,1952.81 2008.75,1952.81 2009.06,1958.44
             2009.06,1962.19 2010.94,1966.25 2013.12,1967.50
             2015.62,1969.06 2015.94,1968.12 2014.69,1964.69
             2013.75,1961.87 2015.31,1948.44 2018.75,1935.31
             2040.31,1848.75 2040.31,1739.06 2018.75,1653.12
             1971.88,1466.88 1834.06,1284.38 1605.94,1107.50
             1275.31,850.62 763.44,606.56 45.31,363.13
             45.31,363.13 1.56,348.44 1.56,348.44
             1.56,348.44 0.62,261.56 0.62,261.56
             0.31,214.06 0.62,175.00 1.25,175.00
             3.75,175.00 145.62,234.06 220.31,266.25
             825.62,526.25 1279.06,779.69 1585.94,1029.38
             1785.00,1191.25 1926.87,1360.94 1993.75,1517.19
             2033.44,1609.38 2047.81,1675.94 2047.81,1767.19
             2047.81,1829.38 2041.88,1871.25 2025.00,1929.69
             2020.00,1946.56 2016.25,1961.25 2016.88,1961.87
             2019.06,1963.75 2038.44,1906.87 2046.88,1873.44
             2068.44,1788.44 2067.50,1687.50 2044.06,1596.88
             1944.69,1215.62 1475.94,793.44 634.38,326.25
             506.56,255.31 363.75,180.94 186.25,92.19
             186.25,92.19 1.87,0.00 1.87,0.00
             1.87,0.00 88.12,0.00 88.12,0.00
             88.12,0.00 174.38,0.00 174.38,0.00
             174.38,0.00 251.87,40.94 251.87,40.94
             1380.31,635.94 1985.62,1155.31 2071.88,1602.19
             2094.38,1719.06 2078.12,1847.19 2028.12,1946.56
             2019.37,1964.37 2016.88,1971.88 2019.37,1975.31
             2021.88,1978.75 2022.19,1978.44 2020.62,1974.06
             2019.37,1970.31 2020.00,1969.06 2022.50,1970.62
             2024.37,1971.88 2025.00,1971.56 2024.06,1969.69
             2022.81,1967.81 2029.06,1954.06 2037.50,1938.75
             2065.62,1889.06 2088.75,1821.25 2098.75,1760.94
             2105.31,1720.00 2105.31,1640.62 2098.75,1597.19
             2051.56,1293.12 1772.50,955.94 1250.00,571.56
             1032.50,411.56 736.88,222.50 435.31,50.00
             435.31,50.00 350.31,1.56 350.31,1.56
             350.31,1.56 435.94,0.62 435.94,0.62
             435.94,0.62 521.88,0.00 521.88,0.00
             521.88,0.00 585.00,39.37 585.00,39.37
             1285.94,477.19 1747.81,865.00 1970.31,1203.12
             2059.38,1338.75 2109.38,1460.62 2125.31,1582.50
             2130.62,1624.37 2127.50,1715.62 2119.06,1754.38
             2105.31,1818.12 2080.00,1880.62 2045.00,1936.56
             2035.62,1951.25 2028.44,1964.06 2029.38,1964.69
             2031.56,1966.88 2073.12,1906.56 2090.00,1876.56
             2152.50,1766.25 2170.94,1635.94 2143.12,1501.56
             2081.56,1200.31 1796.88,845.31 1287.50,434.06
             1142.81,317.19 976.87,194.06 783.12,60.31
             783.12,60.31 695.94,0.00 695.94,0.00
             695.94,0.00 783.12,0.00 783.12,0.00
             783.12,0.00 870.31,0.31 870.31,0.31
             870.31,0.31 901.56,24.06 901.56,24.06 Z
           M 2011.25,1977.50
           C 2010.31,1979.06 2011.56,1980.31 2014.06,1980.31
             2016.56,1980.31 2017.81,1979.06 2016.88,1977.50
             2015.94,1976.25 2014.69,1975.00 2014.06,1975.00
             2013.44,1975.00 2012.19,1976.25 2011.25,1977.50 Z
           M 2612.19,22.50
           C 2666.56,350.31 2691.25,614.69 2690.94,871.56
             2690.62,1130.62 2667.50,1311.87 2611.88,1484.38
             2533.75,1727.19 2397.50,1884.38 2203.12,1957.19
             2149.38,1977.19 2064.06,1995.94 2044.06,1992.19
             2044.06,1992.19 2032.81,1989.69 2032.81,1989.69
             2032.81,1989.69 2042.19,1986.56 2042.19,1986.56
             2067.81,1978.12 2123.44,1954.06 2150.00,1940.00
             2503.44,1752.50 2565.94,1311.87 2336.88,618.75
             2280.94,448.75 2204.06,255.94 2114.06,59.38
             2104.06,37.81 2094.06,15.62 2091.88,10.00
             2091.88,10.00 2087.50,0.00 2087.50,0.00
             2087.50,0.00 2174.38,0.00 2174.38,0.00
             2174.38,0.00 2261.25,0.00 2261.25,0.00
             2261.25,0.00 2286.56,72.50 2286.56,72.50
             2404.06,410.62 2474.69,679.06 2509.38,921.25
             2555.62,1243.75 2535.00,1484.06 2445.62,1670.00
             2415.31,1732.81 2376.88,1785.31 2324.69,1836.25
             2255.31,1903.12 2180.94,1945.94 2075.00,1979.69
             2036.25,1992.19 2040.94,1993.75 2083.75,1982.81
             2244.69,1942.19 2365.31,1859.06 2453.75,1727.19
             2502.81,1654.38 2546.56,1546.25 2569.69,1440.62
             2633.75,1150.94 2609.38,755.31 2496.88,254.69
             2480.62,182.50 2439.69,15.62 2435.94,5.31
             2433.75,0.31 2439.06,0.00 2520.94,0.00
             2520.94,0.00 2608.44,0.00 2608.44,0.00
             2608.44,0.00 2612.19,22.50 2612.19,22.50 Z
           M 2955.00,88.12
           C 2943.75,562.50 2900.31,922.19 2818.44,1220.31
             2761.88,1425.31 2679.06,1606.25 2585.31,1728.75
             2554.38,1769.06 2491.25,1834.38 2456.56,1862.19
             2345.94,1950.31 2206.25,2000.31 2073.44,1999.69
             2056.25,1999.69 2037.81,1999.69 2032.81,1999.69
             2027.50,1999.69 2021.25,1998.44 2018.75,1996.88
             2014.69,1994.06 2015.31,1992.50 2022.81,1985.94
             2027.50,1981.56 2030.62,1978.12 2029.38,1978.12
             2028.44,1978.12 2041.25,1963.75 2058.12,1945.94
             2142.81,1858.12 2190.94,1767.19 2209.06,1659.69
             2216.56,1616.25 2218.12,1539.37 2212.50,1493.75
             2184.06,1265.31 2034.06,995.62 1762.81,685.94
             1701.25,615.62 1619.38,529.69 1527.50,438.75
             1380.94,293.75 1272.81,195.00 1087.50,37.50
             1087.50,37.50 1045.62,1.56 1045.62,1.56
             1045.62,1.56 1130.94,0.62 1130.94,0.62
             1130.94,0.62 1216.25,0.00 1216.25,0.00
             1216.25,0.00 1249.38,30.31 1249.38,30.31
             1346.56,120.00 1560.94,340.00 1665.94,457.81
             2018.44,853.75 2209.38,1183.44 2245.62,1457.81
             2252.50,1510.00 2250.00,1607.50 2240.62,1651.56
             2230.62,1697.81 2217.81,1734.38 2195.31,1779.69
             2167.19,1836.25 2140.62,1871.88 2088.44,1924.06
             2063.75,1948.75 2044.69,1968.75 2045.62,1968.75
             2050.62,1968.75 2105.00,1923.12 2131.25,1896.88
             2212.19,1815.94 2260.94,1720.62 2281.88,1603.12
             2288.12,1567.81 2286.88,1448.12 2280.00,1404.69
             2251.88,1225.62 2170.62,1030.62 2031.56,806.25
             1893.75,584.38 1685.31,319.38 1435.94,48.44
             1416.88,27.81 1399.38,8.44 1397.19,5.31
             1393.12,0.31 1397.50,0.00 1479.06,0.00
             1479.06,0.00 1565.00,0.00 1565.00,0.00
             1565.00,0.00 1605.62,50.62 1605.62,50.62
             2055.31,615.31 2295.94,1071.56 2324.69,1413.44
             2344.06,1643.12 2264.06,1822.19 2086.56,1946.56
             2070.62,1957.81 2052.19,1970.00 2045.31,1974.06
             2037.81,1978.75 2035.94,1980.94 2040.31,1979.69
             2053.75,1975.62 2116.56,1937.50 2146.56,1915.00
             2346.88,1764.37 2412.50,1531.56 2345.00,1210.94
             2282.50,913.44 2100.00,538.44 1797.19,85.94
             1797.19,85.94 1740.62,1.56 1740.62,1.56
             1740.62,1.56 1824.38,0.62 1824.38,0.62
             1870.00,0.31 1909.38,0.62 1911.25,1.25
             1914.69,2.50 1957.81,77.81 2014.06,181.25
             2054.06,254.69 2153.44,454.06 2184.38,523.44
             2310.62,803.75 2381.25,1030.62 2410.00,1245.31
             2418.12,1305.62 2419.69,1444.37 2413.12,1493.44
             2386.88,1686.87 2306.88,1822.19 2160.94,1919.37
             2119.69,1946.88 2044.37,1985.00 2031.87,1985.00
             2024.37,1985.31 2024.06,1985.31 2029.69,1989.37
             2039.37,1996.56 2055.31,1997.81 2090.00,1994.06
             2201.56,1981.56 2308.44,1940.31 2396.88,1874.69
             2430.31,1850.00 2498.44,1782.19 2526.56,1745.31
             2663.75,1566.56 2750.62,1293.75 2785.62,931.25
             2798.44,798.44 2803.12,688.44 2803.12,519.38
             2803.12,357.19 2797.81,218.12 2785.00,31.87
             2785.00,31.87 2782.81,0.00 2782.81,0.00
             2782.81,0.00 2870.00,0.00 2870.00,0.00
             2870.00,0.00 2957.19,0.00 2957.19,0.00
             2957.19,0.00 2955.00,88.12 2955.00,88.12 Z
           M 2034.06,1974.06
           C 2030.00,1978.75 2030.31,1978.75 2036.56,1975.31
             2044.06,1971.56 2045.62,1968.75 2040.94,1968.75
             2039.37,1968.75 2036.25,1970.94 2034.06,1974.06 Z
           M 2020.31,1994.06
           C 2021.56,1995.62 2024.69,1996.56 2027.50,1996.56
             2032.19,1996.25 2032.19,1995.94 2027.19,1994.69
             2024.37,1994.06 2022.81,1991.88 2023.75,1990.00
             2025.00,1987.81 2024.37,1987.50 2022.19,1988.75
             2020.31,1990.00 2019.37,1992.50 2020.31,1994.06 Z
           M 3629.06,67.81
           C 3274.69,1115.94 2892.19,1755.94 2499.38,1959.38
             2394.69,2013.44 2311.88,2034.69 2205.94,2034.69
             2151.88,2034.38 2108.44,2029.69 2064.69,2018.75
             2051.56,2015.31 2038.12,2013.75 2035.31,2014.69
             2031.87,2015.94 2030.94,2015.62 2032.50,2013.12
             2033.75,2010.94 2037.81,2009.06 2041.56,2009.06
             2047.19,2008.75 2047.19,2008.44 2042.81,2007.19
             2039.69,2006.25 2035.31,2007.50 2032.81,2009.38
             2030.31,2011.25 2026.56,2011.87 2024.69,2010.62
             2022.19,2009.38 2021.88,2009.69 2023.12,2012.19
             2024.37,2014.06 2024.06,2015.31 2022.50,2015.00
             2014.37,2012.81 2020.31,2020.62 2040.62,2039.37
             2124.06,2115.94 2223.75,2164.38 2329.69,2180.00
             2375.62,2186.88 2461.88,2184.69 2512.50,2175.62
             2880.94,2109.38 3341.25,1720.00 3895.62,1006.25
             3922.81,970.94 3957.19,925.94 3971.88,906.56
             3971.88,906.56 3998.44,871.25 3998.44,871.25
             3998.44,871.25 3999.38,957.50 3999.38,957.50
             3999.38,957.50 4000.00,1043.75 4000.00,1043.75
             4000.00,1043.75 3944.69,1108.75 3944.69,1108.75
             3689.69,1407.19 3450.94,1650.31 3239.06,1826.87
             2964.06,2055.94 2715.94,2186.56 2506.25,2212.50
             2460.62,2218.12 2383.75,2216.56 2340.31,2209.06
             2232.81,2190.94 2141.88,2142.81 2054.06,2058.12
             2036.25,2041.25 2021.88,2028.44 2021.88,2029.69
             2021.88,2030.94 2019.06,2028.44 2015.62,2024.06
             2007.81,2014.06 2007.81,2013.75 2016.25,2011.25
             2020.94,2010.00 2022.19,2008.44 2019.69,2007.19
             2017.81,2005.62 2048.75,2004.69 2088.44,2004.69
             2204.38,2004.69 2276.56,1989.69 2367.19,1947.19
             2440.31,1912.50 2497.81,1870.94 2564.06,1804.69
             2630.31,1738.44 2682.50,1669.69 2735.00,1580.00
             2914.38,1271.56 3037.81,812.19 3110.62,182.19
             3116.56,130.94 3123.12,72.19 3125.00,51.56
             3126.88,30.94 3129.06,10.94 3130.00,6.87
             3130.00,6.87 3131.25,0.00 3131.25,0.00
             3131.25,0.00 3217.19,0.00 3217.19,0.00
             3278.12,0.00 3303.12,0.94 3303.12,3.44
             3303.12,10.31 3277.50,146.25 3260.62,229.69
             3112.50,958.44 2919.38,1454.69 2673.12,1740.62
             2640.94,1778.12 2577.81,1839.69 2545.31,1865.62
             2467.50,1927.50 2377.50,1973.44 2291.25,1995.31
             2227.50,2011.25 2154.38,2016.88 2076.56,2011.87
             2076.56,2011.87 2045.31,2009.69 2045.31,2009.69
             2045.31,2009.69 2065.62,2014.06 2065.62,2014.06
             2128.12,2027.50 2216.88,2026.87 2292.19,2012.50
             2499.69,1972.19 2699.38,1811.25 2880.62,1537.19
             3092.50,1217.19 3292.19,710.94 3459.38,71.88
             3468.12,38.44 3475.94,8.44 3476.88,5.31
             3478.44,0.31 3485.31,0.00 3565.31,0.00
             3565.31,0.00 3652.19,0.00 3652.19,0.00
             3652.19,0.00 3629.06,67.81 3629.06,67.81 Z
           M 3970.00,61.56
           C 3894.06,219.69 3758.75,480.94 3671.88,637.50
             3294.69,1317.81 2939.69,1760.62 2618.12,1951.87
             2528.12,2005.31 2443.12,2038.12 2353.12,2055.00
             2315.94,2061.88 2233.75,2064.06 2193.75,2059.69
             2175.94,2057.50 2145.62,2051.87 2126.56,2046.88
             2093.12,2038.44 2036.25,2019.06 2038.12,2016.88
             2038.75,2016.25 2053.44,2020.00 2070.31,2025.00
             2128.75,2041.88 2170.62,2047.81 2232.81,2047.81
             2291.25,2047.81 2326.56,2043.75 2376.25,2030.94
             2662.50,1957.81 2955.94,1671.88 3257.19,1171.88
             3437.50,872.50 3615.31,509.06 3803.12,55.31
             3803.12,55.31 3826.25,0.00 3826.25,0.00
             3826.25,0.00 3912.81,0.00 3912.81,0.00
             3912.81,0.00 3999.69,0.00 3999.69,0.00
             3999.69,0.00 3970.00,61.56 3970.00,61.56 Z" />
</svg>
