<?xml version="1.0" encoding="UTF-8" standalone="no"?>
<svg
   width="16"
   height="16"
   fill="currentColor"
   class="bi bi-twitch"
   viewBox="0 0 16 16"
   version="1.1"
   id="svg2"
   sodipodi:docname="twitch.svg"
   inkscape:export-filename="twitch.svg"
   inkscape:export-xdpi="96"
   inkscape:export-ydpi="96"
   xmlns:inkscape="http://www.inkscape.org/namespaces/inkscape"
   xmlns:sodipodi="http://sodipodi.sourceforge.net/DTD/sodipodi-0.dtd"
   xmlns="http://www.w3.org/2000/svg"
   xmlns:svg="http://www.w3.org/2000/svg">
  <defs
     id="defs2" />
  <sodipodi:namedview
     id="namedview2"
     pagecolor="#505050"
     bordercolor="#eeeeee"
     borderopacity="1"
     inkscape:showpageshadow="0"
     inkscape:pageopacity="0"
     inkscape:pagecheckerboard="0"
     inkscape:deskcolor="#d1d1d1" />
  <path
     d="M 3.857,0 1,2.857 V 13.143 H 4.429 V 16 L 7.286,13.143 H 9.57 L 14.714,8 V 0 Z m 9.714,7.429 -2.285,2.285 H 9 l -2,2 v -2 H 4.429 V 1.143 h 9.142 z"
     id="path1" />
  <path
     d="M 11.857,3.143 H 10.714 V 6.57 h 1.143 z m -3.143,0 H 7.571 V 6.57 h 1.143 z"
     id="path2" />
  <path
     style="fill:#ffffff;stroke:#fcfcfc;stroke-width:0.038782;stroke-opacity:1"
     d="M 4.431328,14.547106 V 13.139614 H 2.7241771 1.0170261 V 7.9954163 2.8512185 L 2.4381816,1.4301496 3.8593371,0.00908059 H 9.2849466 14.710556 V 4.000024 7.9909674 L 12.136185,10.565291 9.5618138,13.139614 H 8.4176392 7.2734649 l -1.4074036,1.407492 c -0.774072,0.77412 -1.4135528,1.407491 -1.4210684,1.407491 -0.00752,0 -0.013665,-0.633371 -0.013665,-1.407491 z m 5.711699,-4.8217939 h 1.14404 l 1.148748,-1.148641 1.148748,-1.148641 V 4.2815519 1.1350738 H 8.9988649 4.4131669 V 5.430193 9.7253121 H 5.7026107 6.9920545 V 10.728656 11.732 l 1.003466,-1.003344 1.0034661,-1.0033439 z"
     id="path7" />
  <path
     style="fill:#ffffff;stroke:#fcfcfc;stroke-width:0.038782;stroke-opacity:1"
     d="m 7.5732123,4.8581158 v -1.707151 h 0.5629966 0.5629965 v 1.707151 1.7071509 H 8.1362089 7.5732123 Z"
     id="path8" />
  <path
     style="fill:#ffffff;stroke:#fcfcfc;stroke-width:0.038782;stroke-opacity:1"
     d="m 10.715096,4.8581158 v -1.707151 h 0.562997 0.562997 v 1.707151 1.7071509 h -0.562997 -0.562997 z"
     id="path9" />
</svg>
